<?xml version="1.0" standalone="no"?>
<!DOCTYPE svg PUBLIC "-//W3C//DTD SVG 20010904//EN"
 "http://www.w3.org/TR/2001/REC-SVG-20010904/DTD/svg10.dtd">
<svg version="1.0" xmlns="http://www.w3.org/2000/svg"
 width="700.000000pt" height="700.000000pt" viewBox="0 0 700.000000 700.000000"
 preserveAspectRatio="xMidYMid meet">
<metadata>
Created by potrace 1.11, written by Peter Selinger 2001-2013
</metadata>
<g transform="translate(0.000000,700.000000) scale(0.100000,-0.100000)"
fill="#000000" stroke="none">
<path d="M315 6986 c-150 -36 -272 -162 -304 -314 -16 -75 -16 -6268 0 -6344
33 -155 161 -284 317 -317 75 -16 6268 -16 6344 0 155 33 284 161 317 317 16
76 16 6268 0 6344 -33 156 -162 284 -317 317 -80 17 -6288 14 -6357 -3z m6151
-242 l162 -6 6 -77 c7 -85 21 -533 36 -1161 6 -228 15 -487 20 -575 19 -319
50 -2629 49 -3705 0 -748 -5 -930 -28 -953 -9 -9 -165 -13 -624 -18 -672 -7
-5152 7 -5524 17 l-232 6 -11 51 c-27 126 -55 2513 -55 4622 1 864 4 1618 9
1676 l8 106 61 8 c149 19 5624 26 6123 9z"/>
<path d="M1180 6620 c-382 -4 -712 -10 -732 -15 -35 -7 -38 -10 -45 -54 -13
-75 -9 -3180 5 -4391 13 -1134 26 -1667 40 -1730 l8 -35 984 -7 c1508 -11
5028 -14 5092 -5 51 7 59 12 65 35 22 78 0 3477 -27 4272 -5 146 -14 393 -19
550 -6 157 -15 481 -22 720 -6 239 -14 482 -17 540 l-7 104 -35 8 c-49 11
-4444 18 -5290 8z m1481 -401 c65 -33 152 -104 188 -154 38 -52 71 -144 71
-193 0 -80 -72 -177 -165 -223 -60 -29 -70 -31 -142 -27 -118 7 -214 67 -273
172 -35 60 -37 89 -11 115 35 35 45 62 28 78 -13 13 -18 13 -43 0 -46 -24
-129 -118 -163 -185 -47 -94 -61 -161 -61 -297 0 -214 24 -301 170 -630 54
-121 143 -326 198 -455 189 -443 364 -831 627 -1390 182 -387 198 -423 429
-960 181 -421 207 -475 226 -475 8 0 39 77 80 195 37 107 104 294 150 415 133
355 263 728 335 957 37 117 134 416 215 663 209 633 289 973 276 1170 -13 206
-66 426 -141 586 -30 64 -55 120 -55 124 0 4 -9 20 -21 36 -29 41 -58 37 -133
-20 -188 -142 -384 -120 -473 54 -53 102 -24 266 58 327 48 36 135 79 194 94
99 27 195 14 411 -57 76 -24 135 -38 147 -35 12 4 36 26 52 49 40 55 119 88
230 95 66 4 83 2 94 -12 20 -24 6 -60 -46 -113 -60 -62 -83 -113 -83 -186 0
-93 42 -150 129 -173 81 -21 153 7 225 87 60 66 69 108 39 194 -11 33 -33 65
-67 98 -49 47 -50 49 -32 63 12 8 43 14 75 14 100 0 235 -80 309 -183 19 -27
44 -52 55 -56 11 -4 55 1 101 12 68 17 91 18 144 9 137 -23 258 -114 300 -227
34 -87 65 -286 59 -362 -10 -103 -80 -285 -126 -327 -23 -21 -108 -32 -130
-18 -11 8 -10 18 5 58 29 75 26 166 -9 235 -32 66 -100 132 -163 161 -42 18
-48 18 -97 4 -149 -43 -316 -216 -317 -326 0 -40 -117 -393 -326 -985 -76
-214 -276 -804 -444 -1310 -303 -907 -476 -1412 -603 -1755 -35 -96 -72 -208
-82 -248 -24 -98 -49 -135 -100 -144 -22 -4 -146 -7 -275 -7 l-235 0 -169 382
c-399 899 -682 1476 -851 1732 -93 142 -95 146 -95 195 0 33 6 47 29 68 15 15
49 46 74 70 25 23 51 59 58 79 35 107 -36 281 -150 365 -58 42 -115 59 -225
66 l-100 7 -148 305 c-81 168 -177 373 -214 455 -71 160 -169 354 -347 685
-182 338 -228 406 -322 477 -76 58 -190 113 -233 113 -49 0 -86 40 -77 83 28
132 146 239 330 298 60 19 91 22 213 21 154 -1 146 -3 194 56 20 24 60 28 119
12 60 -17 63 -29 24 -91 -41 -64 -44 -104 -15 -186 27 -76 65 -129 115 -159
82 -48 167 -22 211 65 45 91 35 168 -34 250 -41 49 -62 83 -62 100 0 15 58 13
165 -4 122 -20 191 -19 243 5 39 18 107 33 202 44 19 2 76 3 126 1 70 -3 102
-8 135 -26z m-1935 -565 c6 -21 17 -99 23 -173 30 -334 105 -528 232 -594 44
-23 62 -27 94 -22 53 8 70 26 116 117 41 82 56 99 70 77 29 -46 -13 -200 -73
-265 l-41 -44 17 -43 c9 -23 48 -85 86 -137 38 -52 90 -122 114 -155 58 -80
196 -321 267 -470 72 -148 108 -256 116 -343 5 -51 11 -71 30 -88 36 -33 107
-49 223 -49 96 0 111 3 159 28 95 49 109 27 32 -52 -56 -57 -108 -77 -232 -87
-42 -4 -83 -10 -89 -14 -10 -6 -10 -28 -1 -105 25 -197 91 -317 231 -418 66
-48 120 -97 120 -110 0 -28 -162 42 -240 104 -32 25 -74 76 -119 146 -114 176
-163 242 -183 249 -14 4 -33 -7 -68 -40 -88 -82 -297 -205 -426 -251 -72 -25
-137 -75 -189 -146 -47 -65 -54 -93 -31 -137 30 -57 60 -75 140 -81 80 -7 92
-12 83 -35 -12 -32 -70 -50 -172 -54 -55 -2 -106 -9 -112 -14 -7 -6 -13 -26
-13 -45 0 -69 81 -190 232 -349 109 -114 138 -151 138 -172 0 -45 -234 84
-336 185 -167 166 -191 414 -65 676 42 89 60 115 135 201 l49 56 -47 60 c-26
33 -56 81 -68 107 -44 99 -20 234 44 241 27 3 32 -5 87 -131 27 -64 49 -80
151 -114 118 -38 172 -37 233 5 89 62 136 163 144 312 9 161 -11 240 -113 455
-48 102 -91 182 -94 178 -4 -5 -17 -37 -30 -73 -53 -149 -132 -255 -218 -294
-40 -18 -44 -18 -114 -1 -86 21 -175 62 -161 76 5 5 42 13 81 18 54 7 82 16
107 35 81 62 122 156 112 259 -7 73 -67 278 -102 347 -24 47 -66 90 -89 90 -7
0 -48 -30 -91 -66 -92 -77 -133 -104 -157 -104 -24 0 -23 7 17 91 42 91 65
176 65 247 0 43 -7 67 -39 125 -77 140 -124 355 -125 577 -1 138 0 148 26 203
31 67 47 69 64 11z m2612 -59 c63 -53 123 -222 143 -402 6 -58 16 -125 22
-150 23 -89 32 -46 32 160 0 241 11 292 82 365 l42 45 76 -5 c42 -3 81 -10 87
-16 7 -7 7 -50 -1 -149 -13 -155 -31 -238 -67 -299 -31 -53 -44 -97 -34 -114
24 -39 66 33 166 280 39 98 68 156 78 158 23 5 108 -80 141 -140 25 -45 29
-64 29 -128 0 -64 -4 -83 -28 -127 -37 -66 -67 -95 -142 -132 -70 -34 -93 -56
-76 -73 32 -32 136 50 264 208 115 143 130 154 167 126 38 -28 84 -123 89
-187 3 -43 0 -61 -17 -89 -29 -46 -116 -89 -236 -116 -118 -27 -185 -49 -185
-61 0 -11 157 -11 230 1 30 5 84 12 120 16 62 6 67 4 107 -25 24 -17 46 -43
49 -57 14 -54 -50 -174 -104 -196 -15 -5 -63 -11 -108 -11 -95 -1 -132 14
-231 99 -110 92 -131 62 -29 -41 87 -87 179 -153 224 -161 78 -14 136 -73 111
-113 -28 -44 -173 -111 -240 -111 -84 0 -192 79 -264 194 -47 75 -63 90 -90
80 -27 -11 -16 -51 50 -179 70 -136 78 -175 48 -225 -22 -38 -52 -50 -122 -50
-85 0 -160 17 -195 44 -18 13 -45 48 -61 77 -26 46 -30 65 -30 130 0 73 2 78
38 124 37 48 47 88 26 101 -17 10 -55 -33 -139 -158 -71 -105 -78 -113 -107
-112 -37 2 -129 61 -173 110 -39 45 -40 99 -5 170 31 62 67 98 148 144 67 39
83 66 45 75 -37 9 -115 -12 -217 -61 -51 -24 -108 -44 -126 -44 -44 0 -177 69
-193 100 -16 31 -11 163 9 203 21 46 56 57 171 56 57 0 127 -4 156 -8 28 -4
52 -6 52 -5 0 2 -34 20 -76 41 -42 20 -91 51 -108 69 -17 17 -47 39 -66 49
-42 21 -50 32 -50 68 0 39 22 77 69 120 72 65 119 45 252 -104 115 -129 202
-220 222 -230 37 -20 16 28 -46 106 -123 154 -207 335 -192 414 15 83 96 171
157 171 14 0 40 -11 56 -25z m2660 -957 c27 -27 14 -83 -38 -161 -60 -93 -83
-137 -76 -145 4 -3 19 6 34 20 50 46 154 64 186 32 19 -18 22 -124 6 -171 -13
-36 -31 -45 -133 -68 -87 -19 -107 -16 -107 17 0 26 -16 53 -77 127 -23 29
-45 68 -49 87 -16 87 26 222 80 255 36 22 154 27 174 7z m-343 -61 c22 -34 46
-166 48 -260 l2 -82 -30 -3 c-20 -2 -46 7 -77 27 -52 33 -138 136 -138 164 0
10 19 39 43 64 117 125 125 130 152 90z m-204 -307 c84 -45 234 -212 290 -323
25 -47 21 -53 -76 -146 -107 -102 -139 -110 -190 -50 -62 75 7 239 101 239 25
0 46 21 36 37 -5 7 -32 0 -82 -23 -99 -44 -121 -43 -169 5 -47 47 -76 117 -67
164 6 32 77 127 95 127 4 0 32 -13 62 -30z m330 -89 c33 -33 36 -56 13 -89
-17 -25 -46 -29 -64 -7 -18 22 -25 92 -10 110 18 21 28 19 61 -14z m-1367
-115 c14 -56 -44 -248 -117 -391 -95 -184 -292 -308 -461 -289 -58 7 -59 7
-54 -17 30 -135 68 -290 78 -314 12 -31 48 -75 61 -75 4 0 29 23 55 50 53 56
109 79 144 60 11 -6 20 -19 20 -30 0 -35 -141 -293 -180 -330 -49 -46 -115
-179 -145 -293 -13 -51 -36 -175 -50 -277 -37 -262 -56 -333 -70 -259 -3 19
-10 147 -14 284 -11 326 -10 325 -210 570 -84 102 -91 119 -60 151 32 34 53
38 109 19 76 -25 97 -47 120 -126 36 -118 68 -78 91 115 16 129 10 147 -74
234 -87 90 -178 151 -281 191 -115 44 -159 74 -198 133 -54 80 -328 517 -328
523 0 22 123 -14 217 -63 195 -100 395 -279 523 -466 53 -78 76 -104 78 -90 1
11 -11 76 -28 144 -31 129 -40 262 -20 314 14 37 46 66 74 66 44 0 49 -19 52
-203 2 -175 14 -257 38 -257 16 0 44 57 76 153 29 88 83 147 295 321 235 194
247 200 259 152z m1675 -3 c61 -19 101 -53 101 -86 0 -44 -89 -137 -132 -137
-9 0 -40 20 -68 45 -84 75 -115 56 -87 -51 13 -48 15 -69 6 -91 -26 -69 -72
-82 -120 -34 -35 35 -36 54 -8 173 24 104 50 140 124 174 59 28 114 30 184 7z
m-601 -438 c2 -22 -4 -80 -14 -128 -23 -121 -15 -337 20 -492 53 -241 131
-446 297 -776 298 -596 350 -766 278 -915 -57 -119 -303 -314 -396 -314 -41 0
-25 25 66 102 104 89 152 146 183 214 19 40 23 66 22 144 0 80 -5 110 -32 187
-35 102 -128 294 -235 482 -111 197 -173 336 -247 558 -89 270 -104 347 -104
543 0 171 18 278 60 362 43 85 97 102 102 33z m392 -140 c53 -27 98 -119 144
-296 37 -143 48 -241 36 -311 -34 -184 -163 -447 -240 -488 -29 -16 -58 3 -81
53 -28 63 -24 94 16 139 33 36 35 40 20 61 -8 12 -15 35 -15 52 0 40 -13 61
-27 43 -16 -20 -33 -78 -33 -110 0 -39 -27 -49 -52 -18 -30 38 -61 155 -55
210 3 26 37 144 76 261 39 118 82 252 96 299 36 119 55 136 115 105z m-4131
-610 c34 -17 61 -78 61 -135 0 -22 3 -40 6 -40 3 0 17 14 31 30 32 38 55 38
87 -1 39 -46 34 -79 -19 -139 -74 -83 -53 -94 55 -30 75 45 131 60 155 40 26
-22 17 -49 -40 -110 -31 -34 -53 -64 -51 -69 3 -5 26 -12 51 -15 110 -17 82
-126 -32 -126 -24 0 -43 -3 -42 -7 0 -5 19 -21 41 -38 23 -16 47 -40 55 -52
14 -20 13 -24 -11 -48 -32 -31 -93 -34 -165 -6 -27 11 -52 17 -55 14 -3 -4 -6
-29 -6 -56 0 -56 -20 -87 -55 -87 -24 0 -50 26 -84 83 -27 44 -34 45 -58 10
-54 -80 -98 -106 -148 -87 -25 10 -45 59 -45 110 l0 47 -78 -7 c-71 -6 -80 -5
-96 13 -11 12 -21 42 -24 72 -8 83 23 118 118 134 86 14 158 55 97 55 -31 0
-86 29 -153 81 l-55 42 38 39 c67 70 80 73 159 33 38 -19 72 -35 77 -35 16 0
4 38 -28 90 -55 86 -47 104 45 105 l55 0 3 40 c2 22 8 45 14 52 14 17 63 16
97 -2z m3265 -310 c151 -76 176 -96 354 -270 197 -192 382 -411 382 -452 0
-21 -51 -15 -107 13 -61 30 -180 151 -189 191 -11 53 -27 84 -52 103 -14 11
-27 18 -30 16 -2 -3 8 -35 23 -71 16 -36 25 -68 22 -72 -13 -13 -62 23 -176
131 -112 105 -148 123 -98 48 35 -53 118 -142 166 -177 45 -33 53 -55 19 -55
-13 0 -30 -5 -38 -10 -23 -16 10 -36 72 -43 96 -12 368 -165 368 -207 0 -11
-55 -26 -127 -34 -162 -20 -365 74 -500 231 -167 193 -323 537 -298 654 8 36
38 69 63 69 9 0 75 -29 146 -65z m-3190 -648 c17 -28 31 -66 34 -95 4 -43 -2
-58 -57 -164 -56 -107 -75 -168 -52 -168 4 0 37 21 73 48 35 26 84 56 109 66
145 60 176 80 338 223 57 51 108 90 112 87 15 -9 59 -164 59 -205 0 -23 -16
-77 -39 -132 -59 -139 -59 -137 -19 -137 18 0 70 7 116 15 138 24 225 29 268
15 82 -27 258 -166 332 -263 48 -61 77 -140 88 -236 10 -95 -9 -94 -231 14
-150 73 -259 155 -349 265 -33 39 -69 78 -80 86 -33 23 -118 16 -244 -18 -105
-28 -132 -32 -257 -32 -152 -1 -187 6 -267 55 -95 57 -102 55 -198 -71 -145
-191 -346 -329 -575 -395 -103 -30 -235 -45 -235 -26 0 18 77 68 243 159 207
114 279 163 367 252 70 70 242 289 256 325 5 11 -8 7 -42 -15 -97 -61 -188
-74 -295 -40 -122 38 -203 121 -241 243 -30 101 -22 103 119 30 102 -53 141
-67 290 -103 95 -23 182 -40 195 -38 36 5 66 77 77 186 6 52 15 100 22 108 21
26 52 11 83 -39z m3479 -458 c120 -40 217 -123 263 -224 37 -81 41 -120 14
-135 -36 -19 -72 -2 -137 68 -56 60 -65 66 -98 64 -27 -2 -59 10 -129 48 -102
55 -121 59 -129 31 -4 -17 -15 -19 -93 -19 -94 -1 -228 -29 -272 -58 -37 -24
-20 -27 55 -11 203 46 293 25 145 -34 -140 -55 -86 -66 98 -19 65 17 124 30
131 30 20 0 -10 -28 -89 -83 -41 -28 -70 -53 -65 -54 6 -2 48 14 94 37 79 38
141 51 153 31 4 -5 -13 -28 -36 -50 l-43 -41 31 0 c17 0 53 6 80 14 74 21 117
27 133 17 23 -15 5 -37 -53 -66 -31 -15 -56 -31 -56 -36 0 -20 24 -18 75 5 85
41 155 31 99 -13 -35 -27 -135 -58 -250 -76 l-92 -15 -103 36 c-57 20 -153 59
-214 88 -114 55 -176 78 -258 96 -45 10 -54 8 -103 -17 -67 -34 -88 -26 -92
35 -4 55 20 78 140 128 50 21 117 57 147 80 57 43 174 105 246 131 125 46 293
51 408 12z m-2957 -274 c26 -68 -67 -175 -216 -249 -155 -77 -365 -107 -487
-71 -66 19 -145 74 -157 108 -8 21 -6 31 10 48 11 13 19 36 19 57 0 60 27 67
235 62 305 -8 345 -5 440 29 96 33 148 39 156 16z"/>
<path d="M3507 4944 c-102 -32 -176 -149 -161 -251 14 -96 103 -181 212 -204
142 -29 311 54 342 169 20 76 -7 178 -62 229 -66 62 -229 90 -331 57z m209
-63 c150 -68 125 -275 -41 -334 -71 -25 -96 -22 -146 18 -97 75 -113 128 -66
220 25 50 54 82 92 103 31 17 116 14 161 -7z"/>
<path d="M3201 4864 c14 -17 62 -44 79 -44 5 0 10 5 10 10 0 14 -60 50 -84 50
-16 0 -16 -2 -5 -16z"/>
<path d="M5876 3170 c-9 -70 -51 -211 -87 -293 -38 -87 -33 -106 10 -38 61 95
84 165 89 279 5 109 -1 135 -12 52z"/>
<path d="M5881 2751 c-24 -34 -27 -61 -7 -61 20 0 46 39 46 67 0 31 -14 29
-39 -6z"/>
<path d="M1670 2660 c0 -14 7 -20 21 -20 15 0 19 4 15 16 -3 9 -6 18 -6 20 0
2 -7 4 -15 4 -8 0 -15 -9 -15 -20z"/>
<path d="M1714 2470 c-85 -34 -61 -160 31 -160 88 0 117 123 38 159 -28 13
-40 13 -69 1z m76 -45 c7 -8 10 -22 6 -30 -7 -20 -55 -20 -62 0 -7 17 12 45
31 45 7 0 18 -7 25 -15z"/>
<path d="M5265 1320 c-8 -12 41 -44 55 -35 8 5 6 13 -6 26 -19 21 -39 25 -49
9z"/>
</g>
</svg>
