<?xml version="1.0" encoding="UTF-8" standalone="no"?>
<svg
   xmlns:dc="http://purl.org/dc/elements/1.1/"
   xmlns:cc="http://creativecommons.org/ns#"
   xmlns:rdf="http://www.w3.org/1999/02/22-rdf-syntax-ns#"
   xmlns:svg="http://www.w3.org/2000/svg"
   xmlns="http://www.w3.org/2000/svg"
   xmlns:sodipodi="http://sodipodi.sourceforge.net/DTD/sodipodi-0.dtd"
   xmlns:inkscape="http://www.inkscape.org/namespaces/inkscape"
   viewBox="0 0 85.049759 85.049759"
   version="1.1"
   id="svg6"
   sodipodi:docname="logo.svg"
   width="85.049759"
   height="85.049759"
   inkscape:version="0.92.4 (5da689c313, 2019-01-14)">
  <metadata
     id="metadata12">
    <rdf:RDF>
      <cc:Work
         rdf:about="">
        <dc:format>image/svg+xml</dc:format>
        <dc:type
           rdf:resource="http://purl.org/dc/dcmitype/StillImage" />
        <dc:title></dc:title>
      </cc:Work>
    </rdf:RDF>
  </metadata>
  <defs
     id="defs10" />
  <sodipodi:namedview
     pagecolor="#ffffff"
     bordercolor="#666666"
     borderopacity="1"
     objecttolerance="10"
     gridtolerance="10"
     guidetolerance="10"
     inkscape:pageopacity="0"
     inkscape:pageshadow="2"
     inkscape:window-width="1920"
     inkscape:window-height="1017"
     id="namedview8"
     showgrid="false"
     inkscape:snap-bbox="true"
     inkscape:bbox-paths="true"
     inkscape:snap-bbox-edge-midpoints="true"
     inkscape:bbox-nodes="true"
     inkscape:snap-bbox-midpoints="true"
     inkscape:object-paths="true"
     inkscape:snap-intersection-paths="true"
     inkscape:snap-smooth-nodes="true"
     inkscape:snap-midpoints="true"
     inkscape:snap-object-midpoints="true"
     inkscape:snap-center="true"
     inkscape:snap-text-baseline="true"
     inkscape:snap-page="true"
     inkscape:zoom="5.5496924"
     inkscape:cx="40.783037"
     inkscape:cy="44.18307"
     inkscape:window-x="1912"
     inkscape:window-y="-8"
     inkscape:window-maximized="1"
     inkscape:current-layer="svg6" />
  <rect
     style="opacity:1;fill:#000000;fill-opacity:1"
     id="rect3727"
     width="85.049759"
     height="85.049759"
     x="0"
     y="0"
     rx="5"
     ry="5" />
  <g
     transform="matrix(1.0733928,0,0,0.97881906,-3435.6154,437.65406)"
     id="g3725"
     style="fill:#ffffff">
    <path
       d="m 3230.3591,-363.38714 -25.9031,-0.16502 -0.1919,-1.18081 c -0.1055,-0.64947 -0.2379,-7.70419 -0.2943,-15.67718 -0.056,-7.97299 -0.1442,-16.20435 -0.1952,-18.2919 -0.2528,-10.34308 -0.1502,-44.65907 0.1344,-45.00196 0.2337,-0.2815 9.5101,-0.37936 35.9601,-0.37936 19.6048,0 35.7294,0.0842 35.8324,0.18702 0.103,0.10286 0.2796,5.07832 0.3923,11.05653 0.1127,5.97821 0.2554,10.95307 0.3168,11.05515 0.1567,0.26025 0.5456,29.55835 0.5995,45.1552 0.034,9.69748 -0.054,13.03417 -0.3435,13.1454 -0.6199,0.23782 -18.3604,0.27496 -46.3075,0.0969 z"
       id="path3723"
       inkscape:connector-curvature="0"
       sodipodi:nodetypes="ccccccscsccccc"
       style="fill:#ffffff" />
  </g>
  <g
     id="g3721"
     transform="matrix(1.0315094,0,0,0.94062588,-3299.8996,422.23626)">
    <path
       sodipodi:nodetypes="ccccccscsccccc"
       inkscape:connector-curvature="0"
       id="path3719"
       d="m 3230.3591,-363.38714 -25.9031,-0.16502 -0.1919,-1.18081 c -0.1055,-0.64947 -0.2379,-7.70419 -0.2943,-15.67718 -0.056,-7.97299 -0.1442,-16.20435 -0.1952,-18.2919 -0.2528,-10.34308 -0.1502,-44.65907 0.1344,-45.00196 0.2337,-0.2815 9.5101,-0.37936 35.9601,-0.37936 19.6048,0 35.7294,0.0842 35.8324,0.18702 0.103,0.10286 0.2796,5.07832 0.3923,11.05653 0.1127,5.97821 0.2554,10.95307 0.3168,11.05515 0.1567,0.26025 0.5456,29.55835 0.5995,45.1552 0.034,9.69748 -0.054,13.03417 -0.3435,13.1454 -0.6199,0.23782 -18.3604,0.27496 -46.3075,0.0969 z" />
  </g>
  <g
     transform="matrix(1.0315094,0,0,0.94062588,-3198.6141,421.85333)"
     id="g4">
    <path
       d="m 3148.0011,-367.89167 c 0.3449,-0.0934 0.6524,-0.62959 0.787,-1.37239 0.1215,-0.67049 0.4086,-1.73889 0.6381,-2.37422 1.1618,-3.21693 5.9309,-18.3861 7.4192,-23.59828 0.933,-3.26746 2.64,-8.83699 3.7935,-12.37673 1.1535,-3.53974 2.7129,-8.44092 3.4653,-10.89151 0.7524,-2.45059 1.5055,-4.88624 1.6732,-5.41252 0.1677,-0.52628 0.3051,-1.30085 0.3051,-1.72126 0,-0.99915 1.8372,-3.07153 3.2441,-3.65938 0.9758,-0.4077 1.2063,-0.39966 1.9187,0.0671 1.7841,1.16902 2.4451,3.29211 1.6182,5.1978 -0.2007,0.46231 -0.087,0.57757 0.5694,0.57757 1.0455,0 1.3543,-0.40061 2.0653,-2.67889 0.4917,-1.57563 0.5256,-2.2102 0.2259,-4.22966 -0.3979,-2.68083 -0.9553,-3.72734 -2.481,-4.65757 -1.157,-0.70555 -2.3789,-0.81598 -3.6559,-0.33045 -0.7373,0.28034 -0.9074,0.18809 -1.5399,-0.83538 -0.8226,-1.33087 -2.8639,-2.49847 -3.8963,-2.22851 -0.8719,0.22801 -0.8797,0.35215 -0.065,1.04562 0.3538,0.30137 0.7346,1.0678 0.8461,1.70315 0.1699,0.96762 0.047,1.32926 -0.7552,2.22781 -1.0629,1.18991 -2.1399,1.37226 -3.3012,0.55885 -1.0825,-0.75824 -1.0313,-3.05193 0.092,-4.10684 1.5634,-1.46869 0.8893,-2.26886 -1.3767,-1.6344 -1.0077,0.2821 -1.6056,0.67155 -1.848,1.2035 -0.2424,0.53195 -0.5279,0.71724 -0.8771,0.57476 -3.7892,-1.546 -5.4131,-1.75992 -7.0536,-0.92919 -1.7031,0.86238 -2.1695,1.43541 -2.3956,2.94322 -0.3356,2.23838 1.1167,4.11297 3.1865,4.11297 0.812,0 2.3423,-0.76689 2.9205,-1.46345 0.6972,-0.84013 1.2612,-0.59802 1.6794,0.72085 0.2158,0.68072 0.6028,1.57279 0.8598,1.98242 0.257,0.40963 0.7118,2.23464 1.0107,4.0556 0.4718,2.87424 0.4866,3.66829 0.1122,6.0212 -0.5559,3.49383 -1.2872,6.36975 -3.0994,12.18981 -0.807,2.59184 -1.9566,6.49474 -2.5545,8.67304 -0.5979,2.1783 -2.1881,7.15375 -3.5336,11.05654 -1.3455,3.90279 -2.522,7.50442 -2.6145,8.00362 -0.2378,1.28364 -0.6124,1.12816 -1.1929,-0.49508 -0.2758,-0.77147 -1.0167,-2.66512 -1.6463,-4.20808 -0.6296,-1.54296 -1.5953,-3.99355 -2.146,-5.44576 -0.5507,-1.45221 -1.914,-4.71965 -3.0299,-7.261 -2.3992,-5.46431 -5.8548,-13.86177 -7.6058,-18.48257 -0.6878,-1.81525 -1.7211,-4.41437 -2.2962,-5.7758 -1.6203,-3.83596 -1.9715,-5.24733 -1.9753,-7.93883 0,-2.00565 0.1585,-2.81836 0.8256,-4.15697 0.8268,-1.65926 2.4713,-2.95258 2.4713,-1.94357 0,0.25767 -0.1485,0.56029 -0.3301,0.6725 -1.0512,0.64966 0.6696,3.24956 2.4877,3.75856 1.5183,0.4251 3.048,-0.237 3.8583,-1.66996 0.6123,-1.08292 0.6426,-1.36388 0.2851,-2.64036 -0.2762,-0.98619 -0.8184,-1.77959 -1.7509,-2.56225 -1.2269,-1.02979 -1.537,-1.132 -3.3807,-1.11465 -1.1779,0.0111 -2.4578,0.24033 -3.0493,0.5462 -0.8654,0.44756 -1.297,0.46885 -2.8593,0.14116 -1.012,-0.21227 -1.9377,-0.28832 -2.057,-0.16901 -0.1193,0.11931 0.1729,0.68016 0.6493,1.24632 0.9415,1.119 1.0815,2.12524 0.4795,3.44651 -0.8887,1.95057 -3.1248,1.23199 -3.8489,-1.23694 -0.3908,-1.33224 -0.3766,-1.59713 0.1272,-2.36593 0.6486,-0.98993 0.6264,-1.0425 -0.5684,-1.34236 -0.6878,-0.17261 -0.9594,-0.072 -1.2446,0.46088 -0.3119,0.58268 -0.5735,0.65311 -1.8012,0.48484 -2.6353,-0.36122 -5.7935,1.3035 -6.494,3.42309 -0.4207,1.27278 -0.2003,1.73921 0.8217,1.73921 0.417,0 1.4582,0.53447 2.3137,1.18773 1.3923,1.06312 1.8652,1.82158 4.5055,7.22633 1.6225,3.32121 3.1709,6.6649 3.441,7.43045 0.2701,0.76555 1.4121,3.45452 2.5377,5.97551 l 2.0465,4.58365 h 1.3952 c 1.7349,0 3.1238,1.07373 3.9009,3.01579 0.6998,1.74924 0.4242,3.02022 -0.8756,4.03751 -1.1674,0.91361 -1.1253,1.63598 0.2095,3.60305 1.5344,2.26114 5.1925,10.3574 9.6813,21.42773 l 2.5041,6.17549 2.8317,-0.0174 c 1.5574,-0.01 3.0864,-0.0864 3.3978,-0.17077 z m -33.9934,-2.05154 c 2.2332,-1.08106 4.0599,-2.6361 5.1898,-4.41795 0.5468,-0.86225 1.1596,-1.56772 1.3619,-1.56772 0.2023,0 0.7454,0.29704 1.2069,0.66009 1.0373,0.81591 3.9595,0.89587 6.0309,0.16502 1.919,-0.67706 2.7388,-0.62204 3.3101,0.22212 1.2928,1.91004 2.8408,3.27112 4.8654,4.27793 1.2215,0.60742 2.2883,1.03159 2.3706,0.94255 0.2764,-0.29896 -0.044,-2.45539 -0.4946,-3.32615 -0.7116,-1.37609 -3.4352,-3.87588 -4.4707,-4.10332 -0.5217,-0.11459 -1.769,-0.0247 -2.7716,0.1996 -1.0026,0.22435 -1.8982,0.33286 -1.9901,0.24101 -0.092,-0.0918 0.1464,-0.87538 0.5294,-1.74119 0.62,-1.40174 0.6519,-1.73281 0.2911,-3.02144 -0.2228,-0.79597 -0.4504,-1.44719 -0.5058,-1.44719 -0.055,0 -0.9104,0.80984 -1.9002,1.79965 -0.9898,0.98981 -2.2248,1.90004 -2.7444,2.02278 -0.5196,0.12274 -1.3517,0.60161 -1.849,1.0642 -1.2828,1.19324 -1.4674,0.69452 -0.4575,-1.23665 0.973,-1.86093 1.0301,-2.27018 0.4836,-3.46944 -0.5947,-1.30533 -1.2672,-1.05909 -1.2672,0.46401 0,0.71755 -0.1639,1.66439 -0.3642,2.10404 -0.3554,0.78003 -0.4013,0.78864 -1.8978,0.35635 -0.8434,-0.24367 -1.9157,-0.51836 -2.3827,-0.61045 -0.467,-0.0921 -1.4128,-0.54985 -2.1015,-1.01723 -0.6887,-0.46738 -1.3397,-0.76241 -1.4465,-0.65558 -0.1068,0.10683 0.022,0.81479 0.2862,1.57327 0.9134,2.62169 4.0922,3.73922 6.1135,2.14925 1.0393,-0.81751 0.9638,-0.66074 -1.1115,2.30997 -1.6134,2.30939 -2.6843,3.21768 -6.0983,5.17202 -1.288,0.73735 -2.3932,1.50349 -2.4559,1.7025 -0.1758,0.55752 2.4869,0.0512 4.2701,-0.81205 z m 10.0954,0.56937 c 2.0521,-0.49804 4.2557,-2.15675 4.4333,-3.33709 0.1601,-1.06328 -0.1442,-1.12256 -1.9309,-0.37602 -1.0127,0.42315 -1.8663,0.48516 -4.1831,0.30393 -2.8979,-0.2267 -4.156,0.0792 -3.6555,0.88898 0.112,0.18123 0.031,0.43619 -0.1799,0.56656 -1.012,0.62554 1.0705,2.30623 2.8757,2.32075 0.6004,0.005 1.7885,-0.16038 2.6404,-0.36711 z m 39.3013,-0.3069 c 1.7285,-0.37072 3.0103,-1.29745 1.7944,-1.29745 -0.3489,0 -0.7997,0.16521 -1.0016,0.36717 -0.2019,0.20196 -0.5659,0.29565 -0.8087,0.2083 -0.2813,-0.10129 -0.1122,-0.31348 0.4662,-0.58517 1.6742,-0.78634 0.8825,-1.33102 -0.9319,-0.64118 -1.0897,0.4143 -1.4685,0.14538 -0.6442,-0.45731 1.0667,-0.78004 -0.079,-0.98339 -1.3415,-0.2382 -1.6337,0.96393 -1.8488,0.85428 -0.3776,-0.19249 0.6793,-0.48335 1.1766,-0.93729 1.1051,-1.00875 -0.072,-0.0715 -0.8946,0.12018 -1.8294,0.42589 -1.8538,0.60636 -2.779,0.37672 -1.0744,-0.2667 2.2077,-0.83333 0.5473,-1.12913 -2.0434,-0.36401 -0.361,0.10661 -0.5352,0.0474 -0.4181,-0.14202 0.2913,-0.47147 3.1345,-1.12575 3.8731,-0.89133 0.3509,0.11133 0.6294,0.0438 0.6294,-0.15255 0,-0.5442 0.4616,-0.42443 1.7598,0.45652 0.7392,0.50164 1.2719,0.67925 1.4027,0.46768 0.1177,-0.19044 0.5707,0.16463 1.0254,0.80376 0.5594,0.78617 1.0034,1.09552 1.4171,0.98733 0.495,-0.12943 0.5535,-0.32849 0.3275,-1.11615 -1.0423,-3.63435 -5.1119,-5.02069 -8.9964,-3.0647 -0.947,0.47682 -1.8294,1.051 -1.9609,1.27593 -0.1315,0.22493 -0.9856,0.73005 -1.8978,1.12248 -1.3517,0.5815 -1.6586,0.86446 -1.6586,1.52947 0,0.86461 0.6013,1.07274 1.2436,0.43048 0.2939,-0.29394 0.7211,-0.28527 1.7987,0.0365 0.7774,0.23207 1.4876,0.52425 1.5784,0.64928 0.2131,0.29372 4.0023,1.95984 4.5219,1.98828 0.2179,0.012 1.1365,-0.137 2.0412,-0.33102 z m -0.4573,-5.258 c -0.1122,-0.18154 -0.055,-0.33005 0.1261,-0.33005 0.1815,0 0.4218,0.14851 0.534,0.33005 0.1122,0.18154 0.055,0.33004 -0.1261,0.33004 -0.1816,0 -0.4218,-0.14852 -0.534,-0.33004 z m 6.2319,3.31547 c 1.1812,-0.74042 2.563,-2.16216 3.121,-3.21128 0.8122,-1.52696 0.4648,-3.77087 -1.1224,-7.25009 -0.2609,-0.572 -0.4744,-1.12353 -0.4744,-1.22565 0,-0.10212 -0.8364,-1.93618 -1.8586,-4.07571 -2.9522,-6.17901 -4.2761,-12.37441 -3.4345,-16.072 0.4076,-1.79067 0.085,-2.52155 -0.708,-1.60526 -1.167,1.34808 -1.4718,6.35564 -0.588,9.66167 1.2253,4.58361 1.9677,6.56606 3.7079,9.90138 3.9871,7.64185 4.1642,10.05424 0.9514,12.95344 -0.7539,0.68023 -1.3707,1.31144 -1.3707,1.40269 0,0.35193 0.7906,0.13869 1.7763,-0.47919 z m -0.8597,-8.41267 c 0.4857,-0.48566 -3.2019,-2.81556 -4.4646,-2.82084 -0.8648,-0.004 -1.0246,-0.65739 -0.165,-0.67503 0.4517,-0.009 0.3737,-0.1787 -0.3582,-0.77743 -0.9552,-0.78151 -2.1935,-2.44921 -2.1975,-2.95942 0,-0.15579 0.68,0.47543 1.5137,1.40269 1.4256,1.58571 2.3944,2.19742 2.0166,1.27339 -0.7096,-1.73575 -0.7114,-1.75378 -0.1287,-1.27979 0.3062,0.24912 0.5568,0.72666 0.5568,1.06116 0,0.866 1.8284,2.83553 2.8059,3.02236 0.9775,0.18683 0.9874,0.15472 0.2612,-1.00011 -1.6887,-2.68538 -6.6439,-7.99198 -7.4627,-7.99198 -0.1585,0 -0.7248,-0.31094 -1.2584,-0.69092 -2.4825,-1.76766 -2.6116,1.29123 -0.2491,5.90214 2.181,4.25679 4.9545,6.26681 8.0243,5.81544 0.5314,-0.0781 1.0289,-0.20488 1.1057,-0.28166 z m -53.9937,-4.32301 c -2.0757,-2.2653 -3.1479,-4.08415 -2.9656,-5.03085 0.084,-0.43658 0.389,-0.53881 1.3584,-0.4553 1.1623,0.10013 2.2071,-0.34596 2.2071,-0.94242 0,-0.1407 -0.451,-0.2339 -1.0021,-0.20713 -0.7601,0.0369 -1.1336,-0.16463 -1.5469,-0.83468 -0.5246,-0.85044 -0.5107,-0.93265 0.3726,-2.20723 0.6575,-0.94891 1.3426,-1.46872 2.4187,-1.83538 1.4844,-0.50583 4.8478,-2.84951 5.1637,-3.5982 0.217,-0.51457 0.9623,0.42445 2.2597,2.84741 1.0112,1.88846 1.8597,2.6949 3.6383,3.45796 1.3075,0.56095 1.1163,0.0258 -0.3933,-1.10087 -1.6865,-1.25872 -2.6636,-3.02335 -2.8903,-5.2199 l -0.1819,-1.76176 1.5981,-0.1801 c 1.1938,-0.13456 1.793,-0.40671 2.3685,-1.07582 0.9157,-1.06454 0.7534,-1.42992 -0.3056,-0.68811 -0.8786,0.61536 -2.385,0.68032 -3.8592,0.16637 -0.8118,-0.28298 -1.0402,-0.55402 -1.043,-1.23766 -0.01,-1.38046 -0.8595,-3.84989 -2.3273,-6.73053 -1.813,-3.55829 -1.9881,-3.86313 -2.9872,-5.20133 -0.4743,-0.63534 -1.1,-1.61983 -1.3904,-2.18774 -0.4953,-0.96858 -0.4894,-1.0676 0.096,-1.59713 0.6783,-0.61391 1.2036,-2.88278 0.8135,-3.51402 -0.1487,-0.24058 -0.449,0.16924 -0.7771,1.06053 -0.4308,1.17051 -0.7087,1.47289 -1.4307,1.55672 -1.9529,0.22674 -3.5107,-2.97146 -3.7883,-7.77759 -0.1786,-3.0916 -0.4997,-3.74491 -1.0847,-2.20632 -0.7982,2.09935 0.1116,8.50231 1.4871,10.46608 0.4842,0.69131 0.1575,2.96061 -0.6515,4.525 -0.7278,1.40754 -0.015,1.30236 1.5534,-0.22936 1.1778,-1.15003 1.2872,-1.19024 1.8123,-0.66516 0.5,0.50004 1.0065,1.93887 1.6193,4.60037 0.5164,2.24293 -0.7637,4.54981 -2.5248,4.54981 -0.5375,0 -0.9773,0.11869 -0.9773,0.26374 0,0.30563 1.9387,1.05645 2.7279,1.05645 0.9797,0 2.2632,-1.47019 2.8837,-3.30297 l 0.6129,-1.81053 0.7102,1.64911 c 0.3905,0.90703 0.9409,2.16896 1.2231,2.8043 0.2822,0.63534 0.52,2.10991 0.5287,3.30045 0.018,2.39268 -0.6036,3.95309 -1.9158,4.81294 -0.741,0.48549 -0.9405,0.48407 -2.4496,-0.0172 -1.4233,-0.47271 -1.6949,-0.7084 -2.0317,-1.76309 -0.5021,-1.57204 -0.7755,-1.8485 -1.2559,-1.26973 -0.7212,0.86905 -0.5421,2.73922 0.3778,3.94534 l 0.8569,1.12337 -0.9525,1.15553 c -1.4223,1.72558 -2.4319,4.92646 -2.1922,6.95053 0.2816,2.37723 1.1738,3.83708 3.2109,5.25331 2.8877,2.00757 3.3321,1.61911 1.0263,-0.89723 z m 30.923,-1.64712 c 0.2933,-2.67424 0.6632,-4.34304 1.2436,-5.61078 0.4544,-0.99249 0.9464,-1.80447 1.0935,-1.80447 0.1471,0 0.3627,-0.2599 0.4792,-0.57757 0.1165,-0.31767 0.5624,-1.24592 0.9908,-2.06279 0.4284,-0.81687 0.713,-1.5966 0.6323,-1.73274 -0.321,-0.54157 -1.4435,-0.20054 -1.9663,0.59735 -0.4681,0.71441 -0.6233,0.77524 -1.0047,0.39388 -0.2481,-0.24809 -0.5846,-1.25952 -0.7479,-2.24762 -0.1633,-0.9881 -0.3986,-2.05589 -0.523,-2.37282 -0.1929,-0.49174 -0.083,-0.54765 0.7502,-0.38104 1.271,0.25417 3.4081,-0.8232 4.4783,-2.25759 1.4585,-1.95486 2.8518,-6.85148 1.9496,-6.85148 -0.1411,0 -0.7052,0.40843 -1.2537,0.90763 l -2.8319,2.55784 c -1.0092,0.90763 -1.9314,2.0521 -2.0495,2.54331 -0.1181,0.49121 -0.3704,1.30299 -0.5609,1.80406 -0.5706,1.50069 -0.9876,0.28272 -0.9234,-2.69713 0.052,-2.39613 0,-2.64037 -0.5718,-2.64037 -1.0586,0 -1.3701,2.12044 -0.6914,4.70787 0.3115,1.18781 0.5062,2.21982 0.4326,2.29343 -0.074,0.0736 -0.6028,-0.68574 -1.1759,-1.68744 -1.4984,-2.61894 -5.2054,-5.77939 -7.5764,-6.45939 -0.5872,-0.16842 -1.0206,-0.20234 -0.9632,-0.0754 0.057,0.12693 0.6985,1.23929 1.4246,2.47188 0.7261,1.23259 1.6915,2.92754 2.1453,3.76652 0.6919,1.27905 1.1047,1.63043 2.5559,2.17546 1.1197,0.42051 2.2125,1.17268 3.0953,2.13035 1.3493,1.46389 1.3625,1.50233 1.185,3.46023 -0.219,2.41488 -0.7544,3.15534 -1.069,1.47837 -0.1662,-0.8857 -0.4587,-1.27021 -1.1999,-1.57722 -0.8145,-0.3374 -1.0635,-0.32268 -1.4732,0.087 -0.4373,0.43738 -0.3685,0.65722 0.6098,1.94681 2.5025,3.29859 2.567,3.49176 2.567,7.68107 0,2.11149 0.1196,3.83908 0.2658,3.83908 0.1462,0 0.4537,-1.71287 0.6833,-3.80631 z m -24.8817,1.24847 c 0.4196,-0.95642 0.6355,-0.93579 1.1101,0.106 0.5285,1.15989 1.5708,0.95516 1.4396,-0.28279 -0.1053,-0.99237 0,-1.05561 0.9543,-0.54753 0.7857,0.42047 1.9461,0.11227 1.9461,-0.51689 0,-0.24978 -0.3301,-0.68535 -0.7336,-0.9679 -0.7051,-0.49394 -0.7077,-0.51378 -0.066,-0.51378 0.3672,0 0.8342,-0.16663 1.0378,-0.37027 0.5128,-0.51279 0.151,-1.27996 -0.6036,-1.27996 -0.8056,0 -0.7933,-0.40532 0.035,-1.15516 1.4983,-1.35595 0.1739,-2.07124 -1.4581,-0.78749 -1.1356,0.89334 -1.5264,0.53623 -0.5502,-0.50285 0.616,-0.6557 0.6808,-0.91215 0.3748,-1.48392 -0.4511,-0.84277 -0.8649,-0.87868 -1.3105,-0.11364 -0.2818,0.48395 -0.338,0.41443 -0.3464,-0.42906 -0.012,-1.14856 -0.5237,-1.79875 -1.417,-1.79875 -0.4481,0 -0.5868,0.2013 -0.5116,0.74261 0.088,0.63504 -0.028,0.72721 -0.8043,0.63646 -1.0522,-0.12305 -1.1799,0.39565 -0.3789,1.53923 0.7005,1.00011 0.3964,1.23114 -0.6865,0.52157 -0.8462,-0.55448 -0.899,-0.54925 -1.5964,0.15819 l -0.7212,0.73162 0.9261,0.80557 c 0.5092,0.44305 1.1702,0.80558 1.4687,0.80558 0.8882,0 0.021,0.59741 -1.0413,0.71719 -1.1882,0.134 -1.6861,0.88053 -1.3856,2.0776 0.2092,0.83363 0.3339,0.89988 1.3762,0.73072 0.6396,-0.1038 1.0654,-0.0555 0.9635,0.10935 -0.1019,0.16483 -0.086,0.68142 0.033,1.15328 0.2688,1.07115 1.4615,1.01905 1.9458,-0.085 z m 0.1937,-3.66745 c -0.2314,-0.43246 -0.204,-0.78527 0.093,-1.19103 0.5792,-0.79209 1.6717,-0.51953 1.8096,0.45141 0.1821,1.28271 -1.3027,1.86003 -1.9023,0.73962 z m 1.5433,-0.78817 c -0.1557,-0.46725 -0.6865,-0.4159 -0.8526,0.0825 -0.061,0.18152 0.1375,0.33005 0.4401,0.33005 0.3026,0 0.4882,-0.18565 0.4125,-0.41255 z m -1.5677,-3.21796 c 0,-0.42292 0.2337,-0.42292 0.4951,0 0.1122,0.18153 0.047,0.33006 -0.1456,0.33006 -0.1923,0 -0.3495,-0.14853 -0.3495,-0.33006 z m 49.7472,2.54568 c 0.9829,-1.44386 2.0706,-4.67711 2.0674,-6.14535 0,-1.9892 -1.1759,-6.2889 -1.8535,-6.80195 -1.0681,-0.80877 -1.3205,-0.55643 -1.9036,1.90294 -0.312,1.31606 -0.8561,3.17812 -1.2092,4.13796 -0.7347,1.99736 -0.7898,2.84773 -0.2795,4.31145 0.421,1.20763 0.9555,1.37243 0.9629,0.29681 0,-0.40843 0.149,-0.96539 0.325,-1.23768 0.2493,-0.38578 0.321,-0.29472 0.325,0.41257 0,0.49918 0.1535,0.90763 0.3351,0.90763 0.1816,0 0.039,0.29129 -0.3173,0.64735 -0.5463,0.54622 -0.5928,0.80402 -0.2978,1.65022 0.4482,1.2857 0.9291,1.26434 1.8455,-0.082 z m -0.2252,-3.5641 c 0.2026,-0.37859 0.449,-0.60778 0.5475,-0.50929 0.272,0.27203 -0.1638,1.19766 -0.5639,1.19766 -0.2441,0 -0.239,-0.21106 0.016,-0.68837 z m -1.3353,-0.73402 c 0,-0.13696 0.2376,-0.80122 0.528,-1.47613 0.2904,-0.67491 0.6432,-1.96965 0.7839,-2.87728 l 0.256,-1.65022 0.041,1.35341 c 0.023,0.74442 -0.1305,1.85833 -0.3404,2.47535 -0.3823,1.12367 -1.2686,2.64318 -1.2686,2.17487 z m 1.6977,-13.43531 c -0.4382,-1.25721 0.1642,-1.69785 0.9665,-0.707 0.7315,0.90334 1.0105,0.8944 1.9083,-0.0612 0.9196,-0.97895 0.6532,-1.72461 -0.7859,-2.19955 -0.8854,-0.29218 -1.3025,-0.2632 -2.0928,0.14542 -1.0227,0.52893 -1.1774,0.82089 -1.5511,2.9274 -0.1784,1.00569 -0.1016,1.343 0.3868,1.70014 0.5277,0.38586 0.6693,0.35978 1.0578,-0.19492 0.3374,-0.48175 0.3648,-0.8807 0.1104,-1.6103 z m -2.8198,0.53372 c 0.6171,-0.61719 1.1163,-1.2484 1.1093,-1.4027 -0.037,-0.81676 -2.3203,-3.98375 -3.2725,-4.53985 l -1.1022,-0.64371 -0.6319,0.78038 c -0.7311,0.90285 -0.5733,2.11216 0.4056,3.10933 0.563,0.57349 0.7171,0.59098 1.5469,0.17563 0.5069,-0.25374 1.033,-0.51561 1.1691,-0.58194 0.1361,-0.0663 0.2476,0.0403 0.2476,0.23694 0,0.19664 -0.1998,0.35757 -0.4439,0.35757 -1.1621,0 -2.0296,2.14348 -1.2484,3.0847 0.6416,0.7732 0.9511,0.69288 2.2204,-0.57635 z m -21.3801,-3.00557 c 0.3225,-0.70772 0.2289,-1.11861 -0.6476,-2.84341 -0.8137,-1.60131 -0.9335,-2.07239 -0.5821,-2.28955 0.3172,-0.19605 0.638,0.11815 1.1338,1.11067 0.4233,0.84738 1.1495,1.63366 1.8729,2.02776 1.1522,0.62771 1.2147,0.62874 2.5178,0.0412 0.7349,-0.3314 1.4273,-0.83994 1.5386,-1.13007 0.2127,-0.55429 -0.6144,-1.37003 -1.3892,-1.37003 -0.6398,0 -3.395,-2.63303 -3.395,-3.24448 0,-0.34989 0.4095,-0.12018 1.2516,0.70213 1.0301,1.00583 1.4903,1.22217 2.6,1.22217 1.431,0 1.8438,-0.30159 2.3943,-1.74948 0.2869,-0.75455 0.2308,-1.01515 -0.3415,-1.58741 -0.4646,-0.46465 -0.9135,-0.61799 -1.3968,-0.47705 -1.3932,0.40625 -4.1775,0.60464 -4.1775,0.29766 0,-0.16948 0.9149,-0.5111 2.0332,-0.7592 2.2731,-0.50428 3.2475,-1.25645 3.2475,-2.50687 0,-1.08209 -0.8801,-2.78898 -1.4381,-2.78898 -0.237,0 -0.909,0.73762 -1.4932,1.63921 -1.4034,2.16585 -3.3396,3.69829 -3.3396,2.64319 0,-0.18601 0.3342,-0.46602 0.7426,-0.62219 1.7519,-0.67003 2.6645,-2.5873 2.1496,-4.51642 -0.2932,-1.09849 -1.7208,-2.76743 -2.0479,-2.39418 -0.055,0.0632 -0.5409,1.36929 -1.0788,2.90238 -0.5379,1.53309 -1.1508,2.84507 -1.3619,2.91543 -0.5601,0.18671 -0.469,-0.81043 0.1621,-1.77356 0.3286,-0.50168 0.6074,-1.79195 0.7005,-3.24293 l 0.1547,-2.40977 -0.9192,-0.23071 c -1.8859,-0.47331 -2.9477,2.00688 -2.5676,5.99718 0.122,1.28015 0.072,2.06277 -0.1319,2.06277 -0.1807,0 -0.4082,-1.1632 -0.5057,-2.58487 -0.1841,-2.68609 -1.1265,-5.18776 -2.0941,-5.5591 -0.821,-0.31503 -2.1136,1.17519 -2.1136,2.43667 0,1.24219 1.1762,3.77308 2.4656,5.30545 0.4685,0.55685 0.7097,1.1003 0.536,1.2077 -0.1737,0.1074 -1.1431,-0.90384 -2.1542,-2.24718 -2.1048,-2.79668 -2.8514,-3.17776 -3.8181,-1.94883 -0.8421,1.07061 -0.842,1.96767 3e-4,2.23501 0.363,0.11522 0.6601,0.34447 0.6601,0.50942 0,0.16495 0.5569,0.59511 1.2377,0.95592 l 1.2376,0.656 -1.5443,-0.1947 c -2.4465,-0.30846 -3.1429,-0.003 -3.3153,1.45346 -0.2092,1.76706 -0.026,2.15922 1.3061,2.7919 1.1532,0.5478 1.2145,0.54189 2.5615,-0.24754 1.4065,-0.82423 2.8073,-1.06734 2.8073,-0.48718 0,0.17686 -0.4431,0.55067 -0.9846,0.83068 -1.2126,0.62706 -2.1112,2.26379 -1.8388,3.34915 0.1717,0.68438 1.8817,2.0945 2.5443,2.09826 0.1188,7e-4 0.6771,-0.8156 1.2405,-1.814 0.5634,-0.9984 1.1718,-1.81525 1.3517,-1.81525 0.4817,0 0.3981,0.69481 -0.1574,1.30864 -1.1948,1.32025 -0.2268,4.47041 1.454,4.73177 2.1135,0.32866 2.551,0.2396 2.9321,-0.5968 z m -4.3057,-6.27027 c -2.81,-1.58079 -1.7737,-5.77426 1.4271,-5.77426 2.3806,0 3.5978,1.11555 3.5978,3.29756 0,2.20127 -2.9393,3.64998 -5.0249,2.4767 z m 2.689,-0.64535 c 1.6607,-0.85877 1.6692,-3.45794 0.014,-4.14372 -1.2288,-0.509 -2.1946,-0.163 -2.7971,1.00209 -0.6817,1.31827 -0.6185,1.8762 0.3187,2.81338 0.9372,0.93718 1.208,0.97816 2.4648,0.32825 z m -5.7743,-3.63664 c -0.3499,-0.26462 -0.4875,-0.48361 -0.306,-0.48658 0.4904,-0.008 1.3287,0.58105 1.1215,0.78819 -0.099,0.0988 -0.4657,-0.0369 -0.8155,-0.30161 z m 30.4356,9.56004 c 0.2471,-0.64398 -0.5339,-1.62155 -0.9573,-1.19816 -0.3656,0.36569 -0.015,1.69746 0.4475,1.69746 0.175,0 0.4044,-0.22469 0.5098,-0.4993 z m 3.3792,-0.96185 c 0.203,-0.12544 0.369,-0.81336 0.369,-1.52877 0,-1.21288 -0.064,-1.30067 -0.9497,-1.30067 -0.5224,0 -1.1376,0.22634 -1.3672,0.50302 -0.8567,1.03225 -0.6822,0.15158 0.2421,-1.22246 1.0998,-1.63478 1.075,-2.58103 -0.068,-2.58103 -1.3426,0 -1.8008,0.36038 -2.1616,1.70037 -0.3985,1.47999 -0.1828,2.4899 0.7146,3.34568 0.3405,0.32472 0.6191,0.86603 0.6191,1.20291 0,0.5255 0.1585,0.57673 1.1162,0.36075 0.614,-0.1385 1.2823,-0.35438 1.4852,-0.4798 z m -4.4694,-1.37768 c -0.2362,-2.80495 -0.5723,-4.11537 -1.0323,-4.02463 -0.2719,0.0536 -0.6589,0.39113 -0.8599,0.74999 -0.201,0.35886 -0.576,0.82069 -0.8334,1.02628 -0.3968,0.31688 -0.3563,0.53071 0.2655,1.40395 1.2086,1.69732 2.5713,2.1651 2.4601,0.84441 z"
       id="path2"
       inkscape:connector-curvature="0"
       sodipodi:nodetypes="cccssssscccsccccccccccccscccsccscccssccsscccccscccsccccsccccccccsccsccsccccccccccscccccccccccssscccscccsscccccccccccccccssccccccccccccsccccccscscccccccsssccccsccccccscccccccccsscscccccccscccccccccccccccccccccccccccccssscccsccccccccccccccssscccscccsccsccscccccsccccccccssccccccscscsccccccscccccccsccccccccccccccscscsscccccccccsccccccscccsccccccccccccccccccccccccsscccccccccsscscccscsssscccsccccccsccscscccsccccccscccsscccccssccccsccccccccsccssccsccscccccsccc"
       style="fill:#ffffff" />
  </g>
  <rect
     style="fill:#000000;fill-opacity:0"
     id="rect3717"
     width="79.402084"
     height="79.43364"
     x="2.52492"
     y="2.5581946" />
</svg>
